<?xml version="1.0" encoding="UTF-8"?>
<svg width="100" height="100" viewBox="0 0 100 100" xmlns="http://www.w3.org/2000/svg">
  <defs>
    <pattern id="crypto-pattern" patternUnits="userSpaceOnUse" width="100" height="100">
      <rect width="100" height="100" fill="none"/>
      <!-- Bitcoin symbol -->
      <path d="M30 30 L35 30 C38 30 40 32 40 35 C40 38 38 40 35 40 L30 40 L30 30 Z M30 40 L36 40 C39 40 42 42 42 45 C42 48 39 50 36 50 L30 50 L30 40 Z M30 25 L30 55 M33 25 L33 28 M33 52 L33 55" stroke="currentColor" fill="none" stroke-width="0.7" opacity="0.7"/>
      
      <!-- Ethereum symbol -->
      <path d="M65 30 L75 40 L65 50 L55 40 L65 30 Z M65 45 L65 70" stroke="currentColor" fill="none" stroke-width="0.7" opacity="0.7"/>
      
      <!-- Graph lines -->
      <path d="M10 80 L20 70 L30 75 L40 65 L50 70 L60 60 L70 62 L80 55 L90 60" stroke="currentColor" fill="none" stroke-width="0.7" opacity="0.7"/>
      
      <!-- Nodes/connections -->
      <circle cx="20" cy="20" r="2" fill="currentColor" opacity="0.5"/>
      <circle cx="40" cy="10" r="2" fill="currentColor" opacity="0.5"/>
      <circle cx="80" cy="20" r="2" fill="currentColor" opacity="0.5"/>
      <circle cx="85" cy="85" r="2" fill="currentColor" opacity="0.5"/>
      <line x1="20" y1="20" x2="40" y2="10" stroke="currentColor" stroke-width="0.5" opacity="0.3"/>
      <line x1="40" y1="10" x2="80" y2="20" stroke="currentColor" stroke-width="0.5" opacity="0.3"/>
      <line x1="80" y1="20" x2="85" y2="85" stroke="currentColor" stroke-width="0.5" opacity="0.3"/>
    </pattern>
  </defs>
  <rect width="100" height="100" fill="url(#crypto-pattern)"/>
</svg> 